<?xml version="1.0" encoding="UTF-8" standalone="no"?>
<!-- Generator: Adobe Illustrator 24.2.1, SVG Export Plug-In . SVG Version: 6.00 Build 0)  -->

<svg
   version="1.1"
   id="Layer_1"
   x="0px"
   y="0px"
   viewBox="0 0 143.9 62.3"
   style="enable-background:new 0 0 143.9 62.3;"
   xml:space="preserve"
   sodipodi:docname="LOGO-2RA_HTML_30_let_b.svg"
   inkscape:version="1.1.1 (3bf5ae0d25, 2021-09-20)"
   xmlns:inkscape="http://www.inkscape.org/namespaces/inkscape"
   xmlns:sodipodi="http://sodipodi.sourceforge.net/DTD/sodipodi-0.dtd"
   xmlns="http://www.w3.org/2000/svg"
   xmlns:svg="http://www.w3.org/2000/svg"><sodipodi:namedview
   id="namedview373"
   pagecolor="#ffffff"
   bordercolor="#666666"
   borderopacity="1.0"
   inkscape:pageshadow="2"
   inkscape:pageopacity="0.0"
   inkscape:pagecheckerboard="0"
   showgrid="false"
   showguides="true"
   inkscape:guide-bbox="true"
   inkscape:zoom="10.106824"
   inkscape:cx="42.248684"
   inkscape:cy="31.11759"
   inkscape:window-width="1271"
   inkscape:window-height="969"
   inkscape:window-x="85"
   inkscape:window-y="4"
   inkscape:window-maximized="0"
   inkscape:current-layer="Layer_1"><sodipodi:guide
     position="3.7868421,46.238567"
     orientation="1,0"
     id="guide455" /></sodipodi:namedview><defs
   id="defs1481"><clipPath
     clipPathUnits="userSpaceOnUse"
     id="clipPath359"><path
       d="M 0,420.033 H 610.171 V 0 H 0 Z"
       id="path357" /></clipPath><clipPath
     clipPathUnits="userSpaceOnUse"
     id="clipPath1172"><path
       d="M 0,420.033 H 610.171 V 0 H 0 Z"
       id="path1170" /></clipPath><clipPath
     clipPathUnits="userSpaceOnUse"
     id="clipPath1585"><path
       d="M 0,420.033 H 610.171 V 0 H 0 Z"
       id="path1583" /></clipPath></defs>
<style
   type="text/css"
   id="style1436">
	.st0{fill:#6C6F70;}
	.st1{fill:#2E3A8F;}
	.st2{fill:none;}
</style>


<rect
   x="-3.6"
   y="4.4"
   class="st2"
   width="147.4"
   height="56.7"
   id="rect1476" />
<g
   id="g355"
   clip-path="url(#clipPath359)"
   transform="matrix(0.17670701,0,0,-0.17670701,-4.4238445,66.14318)"><g
     id="g1718"><g
       id="g2593"><path
         d="m 267.923,75.84 h -101.25 v 30.544 h 101.25 z"
         style="fill:#6c6f70;fill-opacity:1;fill-rule:nonzero;stroke:none"
         id="path1573" /><g
         id="g1575"
         transform="translate(106.9281,189.6462)"><path
           d="M 0,0 H 1.206 Z"
           style="fill:#1e1f1d;fill-opacity:1;fill-rule:nonzero;stroke:none"
           id="path1577" /></g><g
         id="g1581"
         clip-path="url(#clipPath1585)"><g
           id="g1587"
           transform="translate(217.2546,157.1714)"><path
             d="m 0,0 c -15.67,0 -28.374,12.704 -28.374,28.373 0,15.672 12.704,28.376 28.374,28.376 15.672,0 28.376,-12.704 28.376,-28.376 C 28.376,12.704 15.672,0 0,0 m 0,92.832 c -35.6,0 -64.459,-28.859 -64.459,-64.459 0,-35.6 28.859,-64.458 64.459,-64.458 35.599,0 64.46,28.858 64.46,64.458 0,35.6 -28.861,64.459 -64.46,64.459"
             style="fill:#2526a9;fill-opacity:1;fill-rule:nonzero;stroke:none"
             id="path1589" /></g><g
           id="g1591"
           transform="translate(56.3875,209.5662)"><path
             d="M 0,0 H -1.927 V 35.505 H 90.385 V 6.605 L 58.349,-41.56 c 0,0 10.623,-4.72 21.027,-15.247 10.404,-10.528 20.587,-26.863 20.587,-46.349 0,-63.288 -68.587,-83.229 -68.587,-83.229 l -10.899,29.505 c 0,0 42.495,12.77 42.495,50.862 0,18.001 -13.015,29.815 -22.678,36 -8.257,5.284 -27.523,13.541 -27.523,13.541 L 49.541,6.385 H 11.339 C 0.926,6.385 0,0 0,0"
             style="fill:#2526a9;fill-opacity:1;fill-rule:nonzero;stroke:none"
             id="path1593" /></g><g
           id="g1595"
           transform="translate(106.8274,189.4654)"><path
             d="M 0,0 H 1.206"
             style="fill:#1e1f1d;fill-opacity:1;fill-rule:nonzero;stroke:none"
             id="path1597" /></g><g
           id="g1599"
           transform="translate(293.0125,350.006)"><path
             d="m 0,0 c 0,13.394 10.809,23.738 24.401,23.738 2.587,0 4.974,-0.133 7.095,-0.464 v -6.1 H 31.033 C 30.9,18.301 28.778,19.362 24.8,19.362 13.395,19.362 4.841,11.007 4.841,0 c 0,-10.875 8.686,-19.428 20.422,-19.428 3.913,0 5.504,0.662 5.77,1.724 h 0.463 v -5.637 c -1.591,-0.397 -3.779,-0.596 -6.1,-0.596 C 10.609,-23.937 0,-13.991 0,0"
             style="fill:#2526a9;fill-opacity:1;fill-rule:nonzero;stroke:none"
             id="path1601" /></g><g
           id="g1603"
           transform="translate(349.9051,331.3727)"><path
             d="m 0,0 c 0.663,0 2.255,0.133 2.255,1.062 h 0.398 v -5.637 h -23.076 v 4.177 l 16.842,37.663 h -12.334 c -0.662,0 -2.254,-0.132 -2.254,-1.06 h -0.398 v 5.636 H 1.922 V 37.464 L -14.787,0 Z"
             style="fill:#2526a9;fill-opacity:1;fill-rule:nonzero;stroke:none"
             id="path1605" /></g><g
           id="g1607"
           transform="translate(378.0862,331.3727)"><path
             d="m 0,0 c 0.663,0 2.254,0.133 2.254,1.062 h 0.398 v -5.637 h -20.157 v 0.398 c 0.928,0 1.06,1.591 1.06,2.254 v 41.111 c 0,0.664 -0.132,2.255 -1.06,2.255 v 0.398 H 2.652 V 36.205 H 2.254 c 0,0.928 -1.591,1.06 -2.254,1.06 H -11.605 V 22.744 H 0 c 0.663,0 2.254,0.133 2.254,1.061 H 2.652 V 17.109 H 2.254 c 0,0.927 -1.591,1.06 -2.254,1.06 H -11.605 V 0 Z"
             style="fill:#2526a9;fill-opacity:1;fill-rule:nonzero;stroke:none"
             id="path1609" /></g><g
           id="g1611"
           transform="translate(387.5013,350.006)"><path
             d="m 0,0 c 0,13.394 10.808,23.738 24.401,23.738 2.587,0 4.974,-0.133 7.096,-0.464 v -6.1 H 31.033 C 30.9,18.301 28.778,19.362 24.8,19.362 13.394,19.362 4.84,11.007 4.84,0 c 0,-10.875 8.686,-19.428 20.424,-19.428 3.912,0 5.502,0.662 5.769,1.724 h 0.464 v -5.637 c -1.592,-0.397 -3.78,-0.596 -6.101,-0.596 C 10.609,-23.937 0,-13.991 0,0"
             style="fill:#2526a9;fill-opacity:1;fill-rule:nonzero;stroke:none"
             id="path1613" /></g><g
           id="g1615"
           transform="translate(433.387,329.4497)"><path
             d="m 0,0 c 0,-0.663 0.132,-2.254 1.06,-2.254 v -0.398 h -6.962 v 0.398 c 0.928,0 1.062,1.591 1.062,2.254 v 41.111 c 0,0.664 -0.134,2.255 -1.062,2.255 v 0.398 H 1.06 V 43.366 C 0.132,43.366 0,41.775 0,41.111 V 24.999 h 24.334 v 16.112 c 0,0.664 -0.132,2.255 -1.06,2.255 v 0.398 h 6.962 v -0.398 c -0.928,0 -1.06,-1.591 -1.06,-2.255 L 29.176,0 c 0,-0.663 0.132,-2.254 1.06,-2.254 v -0.398 h -6.962 v 0.398 c 0.928,0 1.06,1.591 1.06,2.254 V 20.623 H 0 Z"
             style="fill:#2526a9;fill-opacity:1;fill-rule:nonzero;stroke:none"
             id="path1617" /></g><g
           id="g1619"
           transform="translate(329.0411,272.8057)"><path
             d="M 0,0 H 0.265 C 0.199,0.531 0.199,1.26 0.199,1.989 v 34.083 c 0,0.663 -0.133,2.255 -1.061,2.255 v 0.397 H 6.101 V 38.327 C 5.172,38.327 5.04,36.735 5.04,36.072 V -7.692 h -5.902 c 0,0.531 -0.199,1.061 -0.53,1.658 l -22.677,38.26 c -0.597,0.994 -1.062,2.056 -1.261,2.917 h -0.265 c 0.066,-0.53 0.066,-1.26 0.066,-1.923 V -5.04 c 0,-0.662 0.133,-2.254 1.061,-2.254 v -0.398 h -6.962 v 0.398 c 0.928,0 1.061,1.592 1.061,2.254 v 41.112 c 0,0.663 -0.133,2.255 -1.061,2.255 v 0.397 h 10.013 v -0.265 c -0.332,-0.464 -0.265,-1.128 0.862,-3.051 L -1.989,4.111 C -0.729,2.056 -0.265,0.862 0,0"
             style="fill:#2526a9;fill-opacity:1;fill-rule:nonzero;stroke:none"
             id="path1621" /></g><g
           id="g1623"
           transform="translate(359.8765,306.424)"><path
             d="M 0,0 C -0.2,0.597 -0.465,1.26 -0.663,2.586 H -0.928 C -1.127,1.26 -1.393,0.663 -1.592,0 L -9.283,-23.34 H 7.161 Z m -14.389,-38.857 c -0.331,-0.994 -0.133,-2.055 0.663,-2.055 v -0.398 h -7.294 v 0.398 c 0.464,0 1.194,0.862 1.591,2.122 l 13.66,41.044 c 0.265,0.863 0.398,2.255 -0.265,2.454 V 5.106 H 4.708 V 4.708 C 4.044,4.509 4.177,3.117 4.442,2.254 L 17.24,-38.79 c 0.265,-0.862 0.928,-2.122 1.591,-2.122 v -0.398 h -7.559 v 0.398 c 0.796,0 0.995,1.061 0.663,2.055 l -3.448,11.273 h -19.163 z"
             style="fill:#2526a9;fill-opacity:1;fill-rule:nonzero;stroke:none"
             id="path1625" /></g><g
           id="g1627"
           transform="translate(401.0284,311.5299)"><path
             d="m 0,0 v -5.637 h -0.398 c 0,0.929 -1.591,1.062 -2.254,1.062 h -7.625 v -39.189 c 0,-0.662 0.132,-2.254 1.061,-2.254 v -0.398 h -6.963 v 0.398 c 0.928,0 1.061,1.592 1.061,2.254 v 39.189 h -7.625 c -0.664,0 -2.255,-0.133 -2.255,-1.062 h -0.398 V 0 Z"
             style="fill:#2526a9;fill-opacity:1;fill-rule:nonzero;stroke:none"
             id="path1629" /></g><g
           id="g1631"
           transform="translate(413.2949,267.766)"><path
             d="m 0,0 c 0,-0.663 0.132,-2.254 1.061,-2.254 v -0.398 h -6.962 v 0.398 c 0.928,0 1.061,1.591 1.061,2.254 v 41.111 c 0,0.664 -0.133,2.255 -1.061,2.255 v 0.398 H 1.061 V 43.366 C 0.132,43.366 0,41.775 0,41.111 Z"
             style="fill:#2526a9;fill-opacity:1;fill-rule:nonzero;stroke:none"
             id="path1633" /></g><g
           id="g1635"
           transform="translate(426.0463,288.322)"><path
             d="m 0,0 c 0,-10.808 8.686,-19.494 19.494,-19.494 10.808,0 19.495,8.686 19.495,19.494 0,10.808 -8.687,19.494 -19.495,19.494 C 8.686,19.494 0,10.808 0,0 m 43.696,0 c 0,-13.395 -10.808,-24.203 -24.202,-24.203 -13.393,0 -24.203,10.808 -24.203,24.203 0,7.094 2.985,13.394 7.825,17.836 4.31,3.979 10.079,6.366 16.378,6.366 13.394,0 24.202,-10.808 24.202,-24.202"
             style="fill:#2526a9;fill-opacity:1;fill-rule:nonzero;stroke:none"
             id="path1637" /></g><g
           id="g1639"
           transform="translate(508.1112,272.8057)"><path
             d="M 0,0 H 0.265 C 0.199,0.531 0.199,1.26 0.199,1.989 v 34.083 c 0,0.663 -0.133,2.255 -1.061,2.255 v 0.397 H 6.101 V 38.327 C 5.172,38.327 5.04,36.735 5.04,36.072 V -7.692 h -5.902 c 0,0.531 -0.199,1.061 -0.53,1.658 l -22.678,38.26 c -0.596,0.994 -1.06,2.056 -1.26,2.917 h -0.265 c 0.066,-0.53 0.066,-1.26 0.066,-1.923 V -5.04 c 0,-0.662 0.133,-2.254 1.061,-2.254 v -0.398 h -6.962 v 0.398 c 0.928,0 1.061,1.592 1.061,2.254 v 41.112 c 0,0.663 -0.133,2.255 -1.061,2.255 v 0.397 h 10.013 v -0.265 c -0.332,-0.464 -0.265,-1.128 0.862,-3.051 L -1.989,4.111 C -0.73,2.056 -0.265,0.862 0,0"
             style="fill:#2526a9;fill-opacity:1;fill-rule:nonzero;stroke:none"
             id="path1641" /></g><g
           id="g1643"
           transform="translate(538.8909,306.424)"><path
             d="M 0,0 C -0.2,0.597 -0.465,1.26 -0.663,2.586 H -0.928 C -1.127,1.26 -1.393,0.663 -1.592,0 L -9.283,-23.34 H 7.161 Z m -14.389,-38.857 c -0.331,-0.994 -0.133,-2.055 0.663,-2.055 v -0.398 h -7.294 v 0.398 c 0.464,0 1.194,0.862 1.591,2.122 l 13.66,41.044 c 0.265,0.863 0.398,2.255 -0.265,2.454 V 5.106 H 4.708 V 4.708 C 4.044,4.509 4.177,3.117 4.443,2.254 L 17.24,-38.79 c 0.265,-0.862 0.928,-2.122 1.59,-2.122 v -0.398 h -7.558 v 0.398 c 0.796,0 0.995,1.061 0.663,2.055 l -3.448,11.273 h -19.163 z"
             style="fill:#2526a9;fill-opacity:1;fill-rule:nonzero;stroke:none"
             id="path1645" /></g><g
           id="g1647"
           transform="translate(568.1978,269.6891)"><path
             d="m 0,0 h 11.605 c 0.662,0 2.254,0.132 2.254,1.062 h 0.398 V -4.575 H -5.9 v 0.398 c 0.927,0 1.06,1.591 1.06,2.254 v 41.111 c 0,0.663 -0.133,2.255 -1.06,2.255 v 0.398 H 1.062 V 41.443 C 0.133,41.443 0,39.851 0,39.188 Z"
             style="fill:#2526a9;fill-opacity:1;fill-rule:nonzero;stroke:none"
             id="path1649" /></g><g
           id="g1651"
           transform="translate(303.5126,226.1391)"><path
             d="m 0,0 v -18.367 h 5.305 c 6.034,0 9.018,3.448 9.018,9.151 C 14.323,-3.448 9.217,0 3.647,0 Z m 13.129,11.803 c 0,4.376 -3.249,7.492 -7.824,7.492 H 0 V 4.509 h 5.305 c 4.31,0 7.824,3.25 7.824,7.294 m 6.299,-21.616 c 0,-7.692 -5.768,-12.93 -14.256,-12.93 H -5.901 v 0.397 c 0.928,0 1.061,1.592 1.061,2.255 V 21.02 c 0,0.663 -0.133,2.254 -1.061,2.254 v 0.398 H 5.172 c 7.427,0 12.996,-5.105 12.996,-11.405 0,-5.172 -3.05,-9.283 -8.355,-10.079 V 1.989 c 5.637,-0.796 9.615,-5.768 9.615,-11.802"
             style="fill:#2526a9;fill-opacity:1;fill-rule:nonzero;stroke:none"
             id="path1653" /></g><g
           id="g1655"
           transform="translate(345.9926,244.7057)"><path
             d="M 0,0 C -0.2,0.596 -0.465,1.26 -0.663,2.586 H -0.928 C -1.127,1.26 -1.393,0.663 -1.592,0 L -9.283,-23.34 H 7.161 Z m -14.389,-38.857 c -0.331,-0.994 -0.133,-2.055 0.663,-2.055 v -0.398 h -7.294 v 0.398 c 0.464,0 1.194,0.862 1.591,2.122 l 13.66,41.044 c 0.265,0.863 0.398,2.255 -0.265,2.454 V 5.106 H 4.707 V 4.708 C 4.044,4.509 4.177,3.117 4.442,2.254 L 17.24,-38.79 c 0.265,-0.863 0.928,-2.122 1.591,-2.122 v -0.398 h -7.559 v 0.398 c 0.796,0 0.995,1.061 0.663,2.055 l -3.448,11.273 h -19.163 z"
             style="fill:#2526a9;fill-opacity:1;fill-rule:nonzero;stroke:none"
             id="path1657" /></g><g
           id="g1659"
           transform="translate(400.828,211.0874)"><path
             d="M 0,0 H 0.265 C 0.199,0.531 0.199,1.26 0.199,1.989 v 34.083 c 0,0.663 -0.133,2.254 -1.061,2.254 v 0.398 H 6.101 V 38.326 C 5.172,38.326 5.04,36.735 5.04,36.072 V -7.692 h -5.902 c 0,0.531 -0.199,1.061 -0.53,1.658 L -24.07,32.225 c -0.596,0.995 -1.06,2.056 -1.26,2.918 h -0.265 c 0.066,-0.53 0.066,-1.26 0.066,-1.923 V -5.04 c 0,-0.662 0.133,-2.254 1.061,-2.254 v -0.398 h -6.962 v 0.398 c 0.928,0 1.061,1.592 1.061,2.254 v 41.112 c 0,0.663 -0.133,2.254 -1.061,2.254 v 0.398 h 10.013 v -0.266 c -0.332,-0.463 -0.265,-1.127 0.862,-3.05 L -1.989,4.111 C -0.73,2.056 -0.265,0.862 0,0"
             style="fill:#2526a9;fill-opacity:1;fill-rule:nonzero;stroke:none"
             id="path1661" /></g><g
           id="g1663"
           transform="translate(437.1043,247.1589)"><path
             d="M 0,0 C 0.797,1.193 0.863,2.254 -0.199,2.254 V 2.653 H 7.957 V 2.254 C 7.029,2.254 5.902,0.663 5.503,0 L -5.9,-17.306 c -0.2,-0.266 -0.466,-0.664 -0.731,-0.929 0.199,-0.198 0.531,-0.53 0.665,-0.795 L 7.36,-41.111 c 0.399,-0.663 1.526,-2.255 2.454,-2.255 v -0.397 H 1.658 v 0.397 c 1.062,0 0.199,1.592 -0.199,2.255 l -12.731,21.152 c -0.397,0.664 -0.994,0.995 -1.327,1.127 z m -19.826,-43.763 v 0.397 c 0.928,0 1.062,1.592 1.062,2.255 V 0 c 0,0.663 -0.134,2.254 -1.062,2.254 v 0.399 h 6.962 V 2.254 c -0.927,0 -1.06,-1.591 -1.06,-2.254 v -41.111 c 0,-0.663 0.133,-2.255 1.06,-2.255 v -0.397 z"
             style="fill:#2526a9;fill-opacity:1;fill-rule:nonzero;stroke:none"
             id="path1665" /></g><g
           id="g1667"
           transform="translate(228.0817,357.932)"><path
             d="m 0,0 h 16.42 c 6.462,0 16.419,-2.519 16.568,-13.513 0,-7.004 -5.223,-13.213 -15.972,-14.595 l -0.05,-15.487 c 10.551,-0.74 19.281,-7.296 19.177,-16.764 C 36.049,-70.468 29.44,-77.516 16.225,-77.567 H -0.096 Z M -16.861,-92.853 -16.959,15.282 H 17.95 C 34.421,15.235 49.803,4.34 49.557,-12.871 49.411,-21.681 44.285,-31.335 32.751,-35.142 l -10e-4,-0.44 c 5.844,-1.288 11.68,-4.989 15.145,-9.615 4.009,-5.352 5.777,-11.942 5.311,-17.477 -0.787,-9.469 -4.784,-18.541 -13.655,-24.308 -5.72,-3.651 -13.364,-5.968 -23.918,-5.968 z M -130.815,15.383 c -13.859,-1.133 -25.688,-5.422 -36.342,-17.014 -8.135,-8.823 -14.153,-22.783 -13.805,-38.756 0.248,-14.594 9.369,-39.349 34.418,-48.375 7.987,-2.91 17.752,-3.895 29.042,-3.895 l 29.24,0.1 v 1.329 c -1.823,0.64 -2.61,0.595 -2.61,3.554 l -0.199,81.704 0.838,0.1 c 0.69,-2.269 2.761,-5.03 3.499,-6.26 l 49.362,-80.772 h 17.156 V 15.235 h -20.215 l 0.051,-1.285 c 1.475,-0.193 3.008,-1.922 3.008,-3.749 v -70.212 l -0.838,-0.053 c -1.087,3.405 -2.716,5.378 -3.454,6.613 l -42.359,68.784 -26.723,0.05 V 14.1 c 1.677,-0.542 2.663,-1.972 2.862,-4.094 l 0.144,-87.424 c -10.109,0.439 -22.434,-0.74 -31.851,2.664 -14.449,5.374 -24.851,21.497 -24.507,36.683 0.297,14.795 8.086,27.025 20.56,33.88 6.808,3.795 19.182,5.468 24.703,4.191 2.026,-0.494 2.764,-0.843 3.502,-2.519 h 1.284 l -0.051,17.95 h -10.598 z"
             style="fill:#6c6f70;fill-opacity:1;fill-rule:evenodd;stroke:none"
             id="path1669" /></g></g></g></g></g></svg>
